<?xml version="1.0" encoding="iso-8859-1"?>
<!-- Generator: Adobe Illustrator 19.0.0, SVG Export Plug-In . SVG Version: 6.00 Build 0)  -->
<svg version="1.1" id="Capa_1" xmlns="http://www.w3.org/2000/svg" xmlns:xlink="http://www.w3.org/1999/xlink" x="0px" y="0px"
	 viewBox="0 0 512 512" style="enable-background:new 0 0 512 512;" xml:space="preserve">
<path style="fill:#5C5560;" d="M512,256c0,11.223-0.734,22.28-2.15,33.121c-5.208,39.828-19.666,76.751-41.161,108.529
	c-43.496,64.33-115.794,107.588-198.384,111.278c-3.803,0.176-7.637,0.258-11.492,0.258c-3.824,0-7.627-0.083-11.409-0.258
	C165.766,505.31,94.172,463.023,50.5,399.944C22.205,359.073,5.629,309.469,5.629,256c0-35.291,7.224-68.908,20.276-99.435
	c1.943-4.547,4.02-9.032,6.211-13.445C73.617,59.942,159.545,2.815,258.815,2.815c25.195,0,49.521,3.679,72.483,10.53
	c10.365,3.09,20.441,6.821,30.196,11.15c84.068,37.347,144.016,119.132,150.01,215.538C511.835,245.315,512,250.637,512,256z"/>
<path style="fill:#333333;" d="M445.242,337.371v-20.203h3.886v-27.53h6.965c-4.309-6.2-12.184-17.94-16.183-27.034
	c-5.704-12.928-11.884-29.855-11.884-29.855v-17.196c3.4,0.238,8.412,0.703,14.178,1.695c9.962,1.736,17.547-7.761,17.547-7.761
	s-12.38,3.886-19.242-2.604c-4.072-3.793-8.98-4.599-12.432-4.702v-0.589h-3.793v0.692c-0.155,0-0.548,0.083-0.548,0.083
	l0.238,12.959l0.331,0.021v17.847h-0.155c0,0-5.89,16.535-11.709,29.442c-3.896,9.063-11.76,20.803-16.121,27.034h6.934v27.52h3.886
	v20.203l-42.845,0.599v-91.612h4.888l5.167-9.321v-25.267h-16.359v-46.917h2.284l3.968-6.965v-18.973h-9.425v-36.934h14.912
	c-3.565-5.167-31.498-52.601-33.007-59.69c1.839-0.909,3.121-2.573,3.121-4.547c0-2.47-1.819-4.464-4.423-5.064V21.798
	c3.689,0.176,12.391,0.754,22.26,2.439c1.302,0.227,2.573,0.31,3.813,0.258c10.82-0.341,18.736-10.003,19.077-10.427
	c-0.537,0.155-16.266,4.929-25.174-3.41c-6.883-6.417-15.946-6.521-20.027-6.211V2.815h-4.072v29.886
	c-2.594,0.599-4.413,2.594-4.413,5.064c0,1.974,1.24,3.638,2.987,4.547c-1.385,7.089-29.215,54.523-32.821,59.69h14.798v36.903
	h-9.146v18.984l3.824,6.986h2.336v46.917h-16.39v25.267l5.198,9.321h5.033V272.4l-24.482-36.221v-27.788h-13.765v10.2
	c-2.697-5.601-5.663-12.143-7.503-17.806c-4.072-12.36-7.689-28.253-7.689-28.253h-0.93v-6.18c3.111,0.186,8.619,0.651,15.088,1.767
	c9.549,1.684,16.876-7.534,16.876-7.534s-11.915,3.762-18.622-2.522c-6.645-6.252-16.276-4.382-16.276-4.382l0.052,3.038v15.811
	h-0.548c0,0-3.503,15.894-7.585,28.253c-2.821,8.701-8.536,20.048-11.574,26.073h5.766v81.402h-16.576
	c-3.214-6.541-7.399-15.584-9.807-22.88c-4.34-13.238-8.102-30.279-8.102-30.279h-0.393v-26.869h-3.968v26.9h-0.393
	c0,0-3.793,16.979-8.154,30.279c-3.038,9.27-9.011,21.495-12.391,27.83h6.211v66.345h-26.228V347.54h5.973v-48.085h10.417
	c-6.572-6.541-18.415-19.087-24.461-28.667c-8.598-13.713-17.661-31.24-17.661-31.24h-0.238v-23.365
	c3.09,0.258,7.038,0.703,11.378,1.447c9.58,1.695,16.907-7.503,16.907-7.503s-11.946,3.741-18.591-2.511
	c-6.624-6.283-16.235-4.423-16.235-4.423l0.186,12.525l0.517,0.021v23.789h-0.155c0,0-9.011,17.496-17.733,31.23
	c-5.952,9.59-17.868,22.156-24.44,28.667h10.334v48.095h6.025v35.363H50.5v17.062c43.672,63.079,115.267,105.367,196.906,108.983
	h22.9c82.59-3.689,154.888-46.948,198.384-111.278v-60.279H445.242z"/>
<g>
	<path style="fill:#FCB900;" d="M511.504,240.034c-0.775-0.382-1.633-0.692-2.573-0.899c-3.617-0.796-6.976-0.041-10.241,1.416
		c-5.828,2.604-10.51,6.8-15.077,11.099c-2.501,2.346-4.774,4.96-6.996,7.585c-3.1,3.648-6.097,7.389-9.053,11.161
		c-1.994,2.532-3.865,5.177-5.787,7.782c-0.186-0.072-0.176-0.062-0.362-0.134c0.083-1.24,0.186-2.47,0.258-3.71
		c0.258-4.392,1.653-8.484,3.72-12.277c3.059-5.601,6.345-11.089,9.693-16.514c2.511-4.072,3.979-8.329,3.689-13.145
		c-0.103-1.808-0.951-2.377-2.604-1.664c-0.61,0.258-1.281,0.465-1.767,0.878c-4.743,3.937-8.991,8.34-12.763,13.228
		c-3.586,4.661-6.531,9.662-8.939,15.005c-2.491,5.518-4.01,11.285-4.351,17.31c-0.341,5.787,0.599,11.378,3.317,16.586
		c0.196,0.372,0.207,0.992,0.041,1.374c-1.23,2.78-2.604,5.508-3.782,8.309c-2.108,4.981-4.247,9.962-6.128,15.036
		c-2.491,6.697-4.578,13.507-5.704,20.596c-0.837,5.291-1.488,10.572-0.196,15.842c1.436,5.88,4.082,10.882,8.949,14.096
		c1.354,0.899,3.018,1.25,4.619,0.961c0.01,0,0.021-0.01,0.031-0.01c1.385-0.258,2.511-1.302,2.811-2.677
		c0.01-0.01,0.01-0.021,0.01-0.031c0.444-2.025,0.579-4.123,0.992-6.159c1.974-9.766,4.113-19.521,7.461-28.925
		c2.863-8.04,6.149-15.945,9.29-23.892c0.124-0.32,0.723-0.703,1.023-0.651c2.842,0.589,5.653,0.858,8.608,0.62
		c4.878-0.393,9.373-1.86,13.538-4.227c6.593-3.741,11.884-8.991,16.617-14.881C511.267,278.28,512,267.223,512,256
		C512,250.637,511.835,245.315,511.504,240.034z M508.528,267.647c-2.274,5.58-6.066,10.076-10.551,13.92
		c-3.813,3.266-8.464,5.157-13.331,6.386c-1.684,0.434-3.4,0.734-5.105,1.095c-0.093-0.145-0.186-0.3-0.289-0.444
		c1.891-3.049,3.617-6.2,5.715-9.094c3.607-4.981,7.379-9.848,11.212-14.654c2.129-2.687,4.475-5.198,6.79-7.74
		c0.858-0.94,1.808-1.85,2.873-2.542c2.708-1.767,4.227-0.651,4.568,2.346C510.822,260.609,509.933,264.205,508.528,267.647z"/>
	<path style="fill:#FCB900;" d="M281.628,301.855c-7.204,0.14-14.013-1.41-20.398-4.602c-5.214-2.607-9.855-6.072-13.063-11.048
		c-2.763-4.286-3.237-9.332-0.281-13.463c2.771-3.874,6.608-6.164,11.43-6.514c2.768-0.2,5.569-0.477,8.32-0.27
		c4.254,0.322,8.52,0.815,12.702,1.643c3.399,0.672,6.701,1.875,9.999,2.982c1.079,0.363,2.032,1.132,3.004,1.772
		c3.321,2.19,3.191,4.808-0.343,6.685c-2.31,1.227-4.795,1.767-7.393,2.142c-4.738,0.683-9.254-0.119-13.652-1.657
		c-2.516-0.879-4.804-2.41-7.316-3.308c-1.972-0.705-4.108-1.446-6.21-1.265c-1.971,0.169-3.793,1.79-4.305,3.574
		c-0.429,1.493,0.463,3.164,2.19,4.17c2.692,1.567,5.635,2.222,8.699,2.476c2.29,0.19,4.579,0.583,6.867,0.573
		c2.653-0.012,5.317-0.265,7.952-0.597c3.269-0.412,6.571-0.786,9.755-1.589c4.633-1.169,9.134-2.716,12.661-6.276
		c2.339-2.36,1.652-4.815-0.646-6.396c-3.37-2.32-7.292-3.254-11.214-4.022c-4.428-0.867-8.894-1.576-13.366-2.178
		c-2.836-0.382-5.719-0.386-8.571-0.662c-6.518-0.631-13.096-0.846-19.377-3.063c-3.76-1.327-5.453-3.235-5.597-7.702
		c-0.12-3.746,0.654-7.314,1.968-10.742c1.273-3.322,3.953-5.47,6.987-7.163c5.872-3.276,12.228-5.107,18.831-6.115
		c7.205-1.022,21.178-1.477,24.813-1.274c1.895,0.105,3.802,0.128,5.685,0.347c5.436,0.633,10.91,1.13,15.906,3.686
		c2.24,1.147,2.773,2.079,1.936,4.39c-1.397,3.857-2.831,6.458-8.684,6.543c-4.519,0.065-9.035,0.368-13.551,0.602
		c-3.328,0.174-6.657,0.351-9.977,0.629c-4.221,0.354-8.444,0.735-12.649,1.245c-4.334,0.527-8.652,1.197-12.966,1.873
		c-0.772,0.121-1.558,0.48-2.211,0.918c-0.401,0.269-0.844,0.967-0.752,1.349c0.109,0.451,0.72,0.991,1.205,1.106
		c2.114,0.497,4.253,0.918,6.4,1.247c3.668,0.563,7.344,1.064,11.024,1.537c1.472,0.189,2.96,0.27,4.443,0.336
		c7.345,0.33,14.619,1.178,21.539,3.78c5.322,2.001,9.762,5.146,11.462,10.97c1.22,4.179,1.403,8.458,0.732,12.766
		c-0.305,1.952-0.499,3.931-0.961,5.846c-1.208,5.009-4.69,8.091-9.287,9.766c-4.45,1.62-9.027,2.991-13.65,4.005
		C288.442,301.622,284.997,301.565,281.628,301.855z"/>
	<path style="fill:#FCB900;" d="M402.349,249.108c-1.524-0.344-2.749-0.608-3.967-0.899c-4.418-1.056-6.717-4.362-8.457-8.159
		c-0.806-1.76,0.255-3.542,2.266-3.963c3.272-0.685,6.547-1.395,9.854-1.857c5.246-0.734,10.517-1.286,15.78-1.885
		c1.423-0.162,2.857-0.272,4.289-0.313c4.588-0.13,9.186-0.419,13.765-0.252c3.135,0.114,6.495-0.155,9.177,2.163
		c3.069,2.652,5.506,5.782,6.835,9.626c1.054,3.051-0.484,4.944-4.008,5.231c-5.199,0.425-10.396,0.895-15.6,1.231
		c-4.564,0.295-9.136,0.462-13.707,0.614c-0.955,0.032-1.412,0.243-1.704,1.246c-0.746,2.562-1.673,5.07-2.619,7.869
		c2.626-0.139,4.979-0.41,7.324-0.358c4.208,0.094,8.413,0.371,12.618,0.597c1.519,0.082,2.823,1.141,2.857,2.814
		c0.052,2.495-0.222,5.002-0.463,7.494c-0.157,1.633-1.589,2.013-2.844,2.362c-0.97,0.271-2.016,0.343-3.032,0.362
		c-6.92,0.129-13.839,0.249-20.76,0.296c-1.096,0.007-1.64,0.301-1.971,1.371c-1.121,3.625-2.339,7.22-3.509,10.831
		c-0.408,1.261-0.009,1.688,1.273,1.485c5.315-0.836,10.622-1.732,15.955-2.449c4.043-0.544,8.109-1.034,12.18-1.197
		c2.616-0.104,4.321,1.727,5.545,3.928c1.142,2.051,1.923,4.287,0.401,6.321c-1.273,1.702-2.934,3.199-4.662,4.46
		c-6.107,4.456-12.817,7.827-20.036,10.035c-3.174,0.971-6.53,1.381-9.827,1.902c-9.636,1.527-16.482-6.537-18.375-13.203
		c-1.132-3.982-0.71-8.179,0.322-12.166c0.972-3.756,2.402-7.393,3.565-11.103c0.156-0.499-0.026-1.123-0.12-1.678
		c-0.358-2.093-0.885-4.168-1.085-6.274c-0.303-3.18,0.478-4.531,3.867-4.995c2.35-0.321,3.893-1.245,4.848-3.53
		C399.451,254.368,400.953,251.826,402.349,249.108z"/>
	<path style="fill:#FCB900;" d="M338.171,260.429c-0.373,2.637-0.894,5.263-1.089,7.913c-0.412,5.576-0.507,11.178-1.015,16.744
		c-0.368,4.034-1.138,8.037-1.822,12.038c-0.688,4.021-3.141,5.363-6.419,5.725c-3.118,0.343-6.308-1.906-7.204-5.165
		c-0.654-2.377-0.93-4.866-1.265-7.321c-0.214-1.57-0.405-3.179-0.298-4.75c0.315-4.637,0.788-9.262,1.193-13.893
		c0.65-7.452,2.103-14.763,4.086-21.959c1.196-4.341,2.49-8.685,5.241-12.385c2.748-3.695,6.725-4.436,10.013-1.087
		c4.303,4.384,7.719,9.462,10.918,14.659c4.916,7.984,9.64,16.087,14.495,24.109c0.112,0.184,0.249,0.351,0.404,0.508
		c0.804,0.817,2.257,0.304,2.307-0.842c0-0.007,0.001-0.013,0.001-0.021c0.051-1.785-0.008-3.595-0.255-5.362
		c-0.527-3.768-1.162-7.521-1.826-11.268c-0.708-3.99-1.378-7.993-2.284-11.941c-1.506-6.552-3.297-13.039-4.723-19.606
		c-0.388-1.785-0.111-3.803,0.249-5.638c0.403-2.059,2.75-2.547,4.842-1.212c4.305,2.749,7.583,6.501,10.294,10.755
		c4.102,6.439,6.717,13.449,8.152,20.967c1.209,6.334,1.832,12.704,1.449,19.105c-0.444,7.401-1.188,14.834-4.661,21.577
		c-1.894,3.677-4.699,6.412-8.981,7.451c-4.077,0.989-8.561-1.272-10.86-4.045c-8.082-9.742-12.952-21.316-18.662-32.415
		c-0.499-0.969-1.205-1.833-1.815-2.746C338.404,260.377,338.4,260.378,338.171,260.429z"/>
	<path style="fill:#FCB900;" d="M274.967,174.495c-2.604-3.152-6.128-4.619-10.158-4.929c-0.971-0.083-1.56-0.455-2.046-1.374
		c-0.527-1.002-1.333-1.912-2.201-2.656c-2.925-2.522-6.604-3.09-10.22-3.39c-4.919-0.403-9.817,0.103-14.643,1.188
		c-8.753,1.984-16.545,5.849-23.024,12.091c-2.894,2.79-5.229,6.066-7.255,9.59c-2.646,4.588-3.255,9.342-2.139,14.416
		c0.703,3.183,2.418,5.777,4.65,7.751c-0.289,1.395-0.713,2.563-0.754,3.741c-0.155,3.71,1.509,6.676,4.072,9.208
		c1.674,1.633,4.185,1.664,5.797-0.072c1.323-1.405,2.47-2.956,3.865-4.65c4.361,1.922,9.146,2.956,14.127,2.273
		c3.7-0.506,7.503-0.971,10.975-2.242c8.815-3.204,16.483-8.278,22.787-15.356c4.237-4.754,7.554-9.941,8.464-16.369
		C277.736,180.375,277.158,177.151,274.967,174.495z M214.76,196.052c-1.529-2.16-1.106-4.351-0.3-6.231
		c2.728-6.304,7.141-11.006,13.91-12.969c2.17-0.63,4.495-0.703,6.862-0.765C227.058,181.378,220.403,188.136,214.76,196.052z
		 M265.759,186.028c-0.63,2.821-2.191,5.105-3.927,7.275c-3.669,4.557-8.371,7.647-13.972,9.342
		c-4.485,1.354-9.084,1.912-13.755,1.684c-2.253-0.114-4.485-0.568-6.727-0.868c-0.072-0.196-0.145-0.382-0.217-0.579
		c2.925-3.152,5.663-6.5,8.815-9.404c6.035-5.56,12.453-10.696,20.503-13.083c1.86-0.558,3.958-0.692,5.901-0.506
		C265.046,180.148,266.41,183.083,265.759,186.028z"/>
	<path style="fill:#FCB900;" d="M236.665,278.797c0,3.004,0.158,6.019-0.042,9.008c-0.227,3.396-0.791,6.768-1.181,10.153
		c-0.277,2.402-1.59,3.703-3.977,4.103c-3.112,0.521-6.097,0.211-8.946-1.123c-2.254-1.055-2.912-3.225-3.206-5.392
		c-0.392-2.885-0.579-5.81-0.647-8.723c-0.102-4.411-0.109-8.827-0.004-13.238c0.102-4.312,0.37-8.622,0.61-12.93
		c0.164-2.966,0.282-5.942,0.636-8.887c0.751-6.26,1.523-12.523,2.549-18.741c0.297-1.796,0.919-3.71,2.862-4.813
		c2.314-1.313,4.286-1.045,5.919,1.017c3.391,4.278,4.944,9.065,4.86,14.575c-0.115,7.538,0.172,15.082,0.249,22.623
		C236.372,268.919,236.561,278.796,236.665,278.797z"/>
	<path style="fill:#FCB900;" d="M212.394,250.688c-0.165-2.625-0.527-5.27-1.126-7.833c-1.653-7.11-4.506-13.734-8.216-20.017
		c-4.092-6.914-8.887-13.29-14.426-19.097c-2.883-3.018-5.89-5.932-8.867-8.867c-0.868-0.847-1.777-1.664-2.728-2.408
		c-4.082-3.214-8.04-6.603-12.339-9.487c-7.358-4.95-14.736-9.941-22.477-14.24c-7.296-4.051-14.943-7.554-22.683-10.696
		c-7.813-3.173-15.873-5.787-23.934-8.288c-5.208-1.612-10.592-2.708-15.935-3.813c-4.299-0.889-8.629-1.591-12.98-2.129
		c-4.785-0.599-9.611-1.106-14.437-1.24c-5.26-0.155-10.53,0.062-15.791,0.289c-1.447,0.062-2.894,0.134-4.34,0.258
		c-1.767,0.155-3.524,0.372-5.25,0.713c-5.353,1.054-10.675,2.325-15.935,3.782c-1.622,0.455-6.634,2.046-9.125,6.614
		c-0.537,0.982-1.343,2.77-1.705,4.857c-0.651,3.793,1.932,7.441,5.746,7.937c0.031,0,0.052,0,0.072,0.01
		c3.142,0.372,6.324,0.517,9.497,0.61c1.085,0.031,2.284-0.165,3.245-0.651c0.806-0.403,1.591-1.281,1.87-2.129
		c0.134-0.413-0.785-1.457-1.436-1.788c-1.819-0.889-3.855-1.343-5.746-2.067c-0.579-0.217-1.178-0.331-1.788-0.465
		c-0.269-0.062-0.455-0.289-0.475-0.568v-0.031c0-0.217,0.114-0.424,0.31-0.537c0.527-0.3,1.044-0.599,1.602-0.692
		c4.299-0.713,8.588-1.674,12.907-2.15c1.064-0.124,2.129-0.217,3.193-0.269c7.957-0.372,15.956-0.424,23.892,0.806
		c4.526,0.703,9.135,0.951,13.579,1.963c8.236,1.881,16.462,3.886,24.554,6.324c6.335,1.912,12.546,4.258,18.57,6.996
		c8.536,3.886,17.041,7.916,25.164,12.587c7.1,4.082,13.806,8.908,20.431,13.765c4.764,3.493,9.239,7.42,13.589,11.44
		c2.925,2.697,5.415,5.88,8.05,8.887c4.795,5.477,8.557,11.605,11.264,18.353c2.852,7.1,3.979,14.447,2.418,22.001
		c-1.664,8.04-5.952,14.55-12.349,19.614c-5.012,3.958-10.623,6.976-16.71,8.877c-5.25,1.643-10.623,2.956-16.018,4.061
		c-4.371,0.899-8.836,1.653-13.279,1.798c-5.487,0.186-11.026-0.072-16.493-0.589c-5.456-0.517-10.84-1.653-16.276-2.356
		c-1.333-0.176-1.467-0.703-1.447-1.767c0.134-6.976,0.227-13.951,0.32-20.916c0.114-8.112,0.207-16.225,0.32-24.337
		c0.01-0.289,0.103-0.579,0.165-0.961c2.78,0.227,5.477,0.444,8.185,0.682c3.658,0.3,7.358,0.413,10.995,0.982
		c5.549,0.858,11.088,1.881,16.576,3.111c4.082,0.92,8.164,2.056,11.636,4.609c2.656,1.953,2.243,3.782,0.052,5.549
		c-0.816,0.651-1.808,1.085-2.749,1.571c-1.622,0.827-3.317,1.529-4.878,2.46c-1.901,1.126-1.943,2.408-0.031,3.379
		c5.281,2.687,10.551,4.289,16.328,0.909c9.528-5.57,11.946-17.382,3.896-25.649c-4.175-4.278-9.27-7.038-14.829-9.073
		c-5.932-2.18-12.122-3.173-18.281-4.392c-7.957-1.56-15.956-2.429-24.058-2.418c-0.444,0-0.899-0.052-1.312-0.072
		c-0.155-2.511-0.32-4.919-0.455-7.317c-0.124-2.418-0.103-4.836-0.341-7.244c-0.32-3.39-0.744-6.779-1.24-10.148
		c-0.599-4.051-3.1-7.131-5.58-10.138c-1.788-2.16-4.185-2.294-5.591,0.827c-0.351,0.785-0.734,1.571-0.92,2.398
		c-1.075,4.578-2.263,9.146-3.069,13.765c-0.754,4.361-1.085,8.794-1.602,13.197c-0.207,1.767-0.362,3.545-0.651,5.301
		c-0.062,0.362-0.537,0.878-0.889,0.951c-3.431,0.672-6.893,1.209-10.324,1.891c-9.828,1.984-19.314,5.002-28.202,9.673
		c-3.607,1.891-7.079,4.041-9.549,7.461c-2.945,4.061-3.617,8.371-1.354,12.897c2.511,5.012,6.221,9.187,9.962,13.29
		c2.325,2.542,4.816,4.919,7.441,7.151c3.886,3.297,7.771,6.666,11.998,9.487c5.436,3.617,11.213,6.728,16.803,10.096
		c0.465,0.279,0.92,0.94,1.002,1.478c0.496,3.059,0.754,6.159,1.323,9.197c0.496,2.625,1.529,5.105,3.617,6.883
		c2.863,2.429,6.211,2.356,9.497,1.178c1.994-0.713,4.247-1.426,4.743-3.999c0.31-1.602,0.682-3.214,0.692-4.816
		c0.01-1.509,0.475-1.726,1.798-1.343c8.174,2.377,16.566,3.627,25.019,4.289c4.392,0.351,8.825,0.062,13.238,0.072
		c6.521,0.021,12.918-0.899,19.294-2.16c8.133-1.612,15.966-4.134,23.438-7.699c5.25-2.511,10.086-5.653,14.519-9.476
		c4.351-3.751,8.03-8.03,10.747-13.042C210.43,269.91,213.014,260.651,212.394,250.688z M79.745,254.698
		c-0.031,0.465-0.01,0.93-0.031,1.395c-0.207,4.516-0.362,9.032-0.641,13.548c-0.227,3.72-0.589,7.441-0.92,11.161
		c-0.103,1.209-0.289,2.429-0.444,3.741c-8.784-3.462-17.041-7.627-24.647-13.031c-5.973-4.227-11.409-9.042-16.08-14.674
		c-2.284-2.739-1.54-5.291,1.436-6.542c3.989-1.684,8.195-2.914,12.411-3.906c4.33-1.023,8.784-1.602,13.207-2.201
		c2.728-0.382,5.498-0.465,8.257-0.661c2.635-0.196,5.27-0.382,8.071-0.589C80.159,246.927,79.942,250.812,79.745,254.698z"/>
</g>
<g>
</g>
<g>
</g>
<g>
</g>
<g>
</g>
<g>
</g>
<g>
</g>
<g>
</g>
<g>
</g>
<g>
</g>
<g>
</g>
<g>
</g>
<g>
</g>
<g>
</g>
<g>
</g>
<g>
</g>
</svg>
