<?xml version="1.0" encoding="iso-8859-1"?>
<!-- Generator: Adobe Illustrator 19.0.0, SVG Export Plug-In . SVG Version: 6.00 Build 0)  -->
<svg version="1.1" id="Layer_1" xmlns="http://www.w3.org/2000/svg" xmlns:xlink="http://www.w3.org/1999/xlink" x="0px" y="0px"
	 viewBox="0 0 512 512" style="enable-background:new 0 0 512 512;" xml:space="preserve">
<polygon style="fill:#49618C;" points="508.741,511.999 3.262,511.999 104.429,24.712 109.559,0 402.444,0 "/>
<path style="fill:#3B4773;" d="M354.19,511.999H3.262L104.429,24.712l19.174,8.38C123.603,33.092,96.279,377.991,354.19,511.999z"/>
<g>
	<polyline style="fill:#52BED3;" points="474.259,512 382.462,0.001 402.44,0.001 508.738,512 	"/>
	<polyline style="fill:#52BED3;" points="37.737,512 129.535,0.001 109.557,0.001 3.259,512 	"/>
</g>
<polygon style="fill:#E24260;" points="417.179,193.587 94.828,193.587 107.754,121.489 404.243,121.489 "/>
<g>
	<path style="fill:#FFFFFF;" d="M147.397,254.191c0,4.326-3.511,7.837-7.837,7.837h-14.89l-2.56,11.452l-3.511,15.673l-5.716,25.537
		c-0.825,3.647-4.054,6.123-7.649,6.123c-0.564,0-1.139-0.063-1.714-0.188c-4.221-0.951-6.886-5.141-5.935-9.362l7.032-31.41
		l0.084-0.366l6.05-27.011c0.794-3.574,3.971-6.123,7.649-6.123h21.159C143.886,246.354,147.397,249.865,147.397,254.191z"/>
	<path style="fill:#FFFFFF;" d="M179.131,255.257l-7.576,55.003l-0.522,3.783c-0.533,3.929-3.897,6.771-7.753,6.771
		c-0.355,0-0.711-0.021-1.076-0.073c-4.284-0.585-7.283-4.545-6.698-8.829l4.305-31.263l3.793-27.523
		c0.596-4.295,4.545-7.283,8.84-6.698C176.727,247.023,179.726,250.972,179.131,255.257z"/>
	<path style="fill:#FFFFFF;" d="M271.613,320.814c-4.244,0-7.732-3.39-7.831-7.655l-1.364-58.787
		c-0.1-4.327,3.327-7.916,7.653-8.016c4.376-0.096,7.915,3.326,8.016,7.653l1.364,58.787c0.1,4.327-3.327,7.916-7.653,8.016
		C271.736,320.814,271.675,320.814,271.613,320.814z"/>
	<path style="fill:#FFFFFF;" d="M365.956,320.815c-3.772,0-7.097-2.73-7.726-6.574l-9.602-58.787c-0.697-4.272,2.2-8.3,6.471-8.998
		c4.272-0.698,8.299,2.199,8.998,6.471l9.602,58.787c0.697,4.272-2.199,8.3-6.471,8.998
		C366.801,320.782,366.376,320.815,365.956,320.815z"/>
	<path style="fill:#FFFFFF;" d="M406.757,320.816c-3.588,0-6.823-2.478-7.64-6.126l-13.165-58.787
		c-0.946-4.223,1.712-8.413,5.935-9.36c4.226-0.946,8.415,1.712,9.359,5.935l13.165,58.787c0.946,4.223-1.712,8.413-5.935,9.36
		C407.9,320.755,407.324,320.816,406.757,320.816z"/>
	<path style="fill:#FFFFFF;" d="M236.554,320.815c-2.819,0-5.485-1.527-6.88-4.086l-19.544-35.846l-2.745,32.749
		c-0.362,4.313-4.176,7.521-8.464,7.154c-4.313-0.362-7.516-4.15-7.155-8.464l4.927-58.787c0.288-3.449,2.807-6.3,6.193-7.013
		c3.38-0.713,6.84,0.878,8.497,3.917l18.175,33.334l0.86-29.809c0.124-4.327,3.696-7.726,8.06-7.608
		c4.326,0.125,7.731,3.733,7.607,8.059l-1.697,58.787c-0.102,3.539-2.564,6.57-6.008,7.395
		C237.772,320.744,237.159,320.815,236.554,320.815z"/>
	<path style="fill:#FFFFFF;" d="M320.066,320.814h-16.522c-4.329,0-7.837-3.509-7.837-7.837c0-4.328,3.508-7.837,7.837-7.837h16.522
		c1.472,0,2.692-0.531,3.624-1.578c1.168-1.313,1.697-3.282,1.449-5.401c-0.512-4.38-4.175-8.082-7.998-8.082h-1.741
		c-11.76,0-22.013-9.7-22.856-21.623c-0.419-5.938,1.505-11.52,5.419-15.719c3.836-4.116,9.107-6.382,14.844-6.382h15.079
		c4.329,0,7.837,3.509,7.837,7.837s-3.508,7.837-7.837,7.837h-15.079c-1.718,0-2.785,0.759-3.377,1.394
		c-0.915,0.982-1.359,2.378-1.25,3.93c0.265,3.757,3.639,7.053,7.221,7.053h1.741c11.776,0,22.127,9.635,23.566,21.934
		c0.767,6.559-1.167,12.989-5.307,17.642C331.479,318.388,326.033,320.814,320.066,320.814z"/>
	<path style="fill:#FFFFFF;" d="M140.24,281.316c0,4.326-3.511,7.837-7.837,7.837H112.32c-4.326,0-7.837-3.511-7.837-7.837
		c0-0.502,0.042-0.993,0.136-1.463l0.084-0.366c0.815-3.448,3.918-6.008,7.617-6.008h20.083
		C136.729,273.48,140.24,276.98,140.24,281.316z"/>
	<path style="fill:#FFFFFF;" d="M399.958,290.419h-38.957c-4.329,0-7.837-3.509-7.837-7.837c0-4.328,3.508-7.837,7.837-7.837h38.957
		c4.329,0,7.837,3.509,7.837,7.837C407.795,286.911,404.287,290.419,399.958,290.419z"/>
</g>
<path style="fill:#CE2647;" d="M135.809,193.587H94.828l12.925-72.098h17.763C127.44,143.066,130.637,167.517,135.809,193.587z"/>
<g>
	<path style="fill:#E6E6E6;" d="M147.397,254.191c0,4.326-3.511,7.837-7.837,7.837h-14.89l-2.56,11.452h10.292
		c4.326,0,7.837,3.5,7.837,7.837c0,4.326-3.511,7.837-7.837,7.837H118.6l-5.716,25.537c-0.825,3.647-4.054,6.123-7.649,6.123
		c-0.564,0-1.139-0.063-1.714-0.188c-4.221-0.951-6.886-5.141-5.935-9.362l7.032-31.41l0.084-0.366l6.05-27.011
		c0.794-3.574,3.971-6.123,7.649-6.123h21.159C143.886,246.354,147.397,249.865,147.397,254.191z"/>
	<path style="fill:#E6E6E6;" d="M171.555,310.26l-0.522,3.783c-0.533,3.929-3.897,6.771-7.753,6.771
		c-0.355,0-0.711-0.021-1.076-0.073c-4.284-0.585-7.283-4.545-6.698-8.829l4.305-31.263
		C163.374,290.501,167.282,300.386,171.555,310.26z"/>
</g>
<g>
</g>
<g>
</g>
<g>
</g>
<g>
</g>
<g>
</g>
<g>
</g>
<g>
</g>
<g>
</g>
<g>
</g>
<g>
</g>
<g>
</g>
<g>
</g>
<g>
</g>
<g>
</g>
<g>
</g>
</svg>
